<?xml version="1.0" standalone="no"?><!DOCTYPE svg PUBLIC "-//W3C//DTD SVG 1.1//EN" "http://www.w3.org/Graphics/SVG/1.1/DTD/svg11.dtd"><svg t="1546242432620" class="icon" style="" viewBox="0 0 1024 1024" version="1.1" xmlns="http://www.w3.org/2000/svg" p-id="4864" xmlns:xlink="http://www.w3.org/1999/xlink" width="200" height="200"><defs><style type="text/css"></style></defs><path d="M447.534 705.9a35.745 35.745 0 0 1-10.11 30.311l-6.92 6.92c-14.036 14.036-36.793 14.036-50.828 0l-98.924-98.923c-6.639-6.639-6.639-17.403 0-24.042 6.639-6.638 17.403-6.638 24.042 0l98.923 98.924a1.941 1.941 0 0 0 2.745 0l6.92-6.92c0.387-0.387 0.569-0.933 0.492-1.474l-7.657-53.583a17 17 0 0 1 4.809-14.426l98.769-98.763c8.11-8.11 21.758-6.027 27.08 4.133l88.043 168.077 12.904-12.905-51.754-224.279a17 17 0 0 1 4.544-15.843l98.768-98.769c7.728-7.727 7.728-22.105-0.002-29.831-7.727-7.73-22.103-7.73-29.833 0.003l-98.774 98.763a17 17 0 0 1-15.843 4.543L320.656 386.06l-12.901 12.906 168.078 88.044c10.159 5.321 12.242 18.97 4.132 27.08l-98.769 98.768a17 17 0 0 1-14.423 4.809l-35.024-5.001c-9.294-1.327-15.753-9.938-14.426-19.233 1.327-9.294 9.938-15.753 19.232-14.426l26.61 3.8 76.408-76.409-151.092-79.146c-18.592-9.73-22.402-34.705-7.565-49.53l16.836-16.841a31.113 31.113 0 0 1 28.982-8.312l216.659 50 92.109-92.1c21.006-21.014 56.916-21.014 77.918-0.004 21.008 21 21.008 56.909 0.002 77.915l-92.106 92.106 50 216.675a31.103 31.103 0 0 1-8.313 28.97l-16.844 16.845c-14.835 14.823-39.798 11.012-49.53-7.573l-79.144-151.087-76.407 76.403 6.456 45.182z" p-id="4865" fill="#707070"></path></svg>